<svg xmlns="http://www.w3.org/2000/svg" width="512" height="512" viewBox="0 0 512 512" version="1.1"><path d="M 362 131.399 C 317.400 138.244, 290.011 162.583, 279.740 204.500 C 277.642 213.062, 277.535 215.569, 277.535 256 C 277.535 296.431, 277.642 298.938, 279.740 307.500 C 287.243 338.122, 302.734 358.098, 328.141 369.916 C 342.969 376.813, 352.957 379.288, 373.170 381.074 C 427.294 385.855, 474.160 363.173, 489.350 324.845 C 494.805 311.082, 496.623 294.556, 493.302 288.934 C 490.186 283.659, 486.507 282.999, 460.230 283.006 C 446.207 283.009, 434.896 283.457, 432.579 284.100 C 426.754 285.717, 423.678 289.456, 420.620 298.639 C 417.837 306.995, 414.501 312.346, 409.815 315.968 C 403.404 320.922, 389.939 323.551, 378.953 321.993 C 362.890 319.715, 354.472 311.173, 351.417 294.050 C 349.808 285.033, 349.504 230.206, 351.005 219.828 C 353.142 205.049, 358.275 197.109, 368.914 192.120 C 373.880 189.791, 375.721 189.500, 385.500 189.500 C 406.516 189.500, 415.162 195.564, 421.423 214.693 C 423.428 220.819, 426.096 224.481, 430.039 226.520 C 434.194 228.669, 484.754 228.696, 488.901 226.551 C 495.237 223.275, 496.563 215.551, 493.422 200.208 C 486.470 166.236, 458.944 141.781, 417.548 132.798 C 405.852 130.260, 374.558 129.472, 362 131.399 M 25.071 134.752 C 23.185 135.713, 20.710 137.771, 19.571 139.323 C 17.505 142.140, 17.500 142.422, 17.500 255.823 C 17.500 367.945, 17.527 369.536, 19.500 372.166 C 23.743 377.820, 24.714 378, 51.036 378 C 73.418 378, 75.507 377.850, 78.460 376.025 C 84.593 372.235, 84.453 373.537, 85 315.103 L 85.500 261.705 98.895 286.603 C 106.263 300.296, 113.376 312.967, 114.703 314.759 C 119.078 320.669, 123.267 322, 137.492 322 C 151.712 322, 154.947 321.102, 159.527 315.886 C 161.174 314.010, 168.592 301.101, 176.011 287.201 L 189.500 261.927 190 315.214 C 190.378 355.544, 190.807 369.037, 191.763 370.709 C 192.458 371.924, 194.526 374.062, 196.358 375.459 L 199.689 378 224.094 377.996 C 246.536 377.993, 248.758 377.835, 251.701 376.040 C 258.412 371.949, 258 379.832, 258 255.418 C 258 144.124, 257.975 142.696, 255.981 139.469 C 252.472 133.792, 248.716 133, 225.295 133 C 206.685 133, 204.221 133.198, 200.506 134.997 C 198.237 136.096, 195.467 138.233, 194.350 139.747 C 193.234 141.261, 180.265 164.100, 165.531 190.500 C 150.797 216.900, 138.460 238.817, 138.116 239.205 C 137.771 239.593, 125.134 217.788, 110.033 190.750 C 94.933 163.711, 81.286 140.117, 79.707 138.319 C 78.128 136.520, 75.185 134.590, 73.168 134.030 C 71.150 133.470, 60.275 133.009, 49 133.007 C 31.452 133.004, 28.006 133.255, 25.071 134.752 M 363.500 141.496 C 322.090 148.051, 297.825 169.955, 289.275 208.500 C 287.740 215.418, 287.500 221.844, 287.500 256 C 287.500 298.877, 287.974 303.723, 293.642 318.782 C 304.367 347.275, 328.901 365.113, 364.150 370.046 C 376.236 371.737, 399.738 371.494, 410.737 369.564 C 434.644 365.369, 452.779 356.398, 466.275 342.091 C 477.528 330.163, 484.101 315.120, 484.367 300.685 L 484.500 293.500 462 293.208 C 449.625 293.048, 438.088 293.171, 436.363 293.482 C 433.580 293.984, 432.969 294.750, 430.948 300.274 C 425.255 315.832, 420.337 322.192, 410.002 327.362 C 397.237 333.749, 380.046 334.357, 365.555 328.935 C 357.664 325.982, 349.102 317.847, 345.546 309.922 C 340.545 298.779, 339.806 290.623, 340.220 251.115 C 340.591 215.575, 340.598 215.483, 343.280 207.500 C 347.800 194.051, 356.572 185.051, 368.869 181.243 C 377.558 178.553, 397.633 178.875, 405.105 181.823 C 417.938 186.888, 425.586 195.139, 430.046 208.734 C 431.267 212.455, 432.711 216.063, 433.256 216.750 C 434 217.691, 440.515 218, 459.622 218 L 485 218 485 213.565 C 485 201.777, 479.788 187.062, 471.497 175.444 C 459.379 158.462, 435.204 145.589, 407.872 141.565 C 395.404 139.729, 374.862 139.697, 363.500 141.496 M 28.750 144.080 C 27.100 145.041, 27 151.404, 27 255.350 C 27 339.767, 27.281 365.881, 28.200 366.800 C 29.900 368.500, 72.100 368.500, 73.800 366.800 C 74.709 365.891, 75 349.874, 75 300.835 C 75 236.694, 75.020 236.060, 77.038 234.980 C 78.159 234.380, 79.867 234.140, 80.835 234.448 C 81.891 234.783, 90.371 249.428, 102.047 271.080 C 112.746 290.921, 122.491 308.244, 123.702 309.577 C 125.792 311.876, 126.499 312, 137.551 312 C 149.150 312, 149.208 311.988, 151.849 309.079 C 153.307 307.472, 163.031 290.148, 173.459 270.580 C 184.876 249.153, 193.115 234.781, 194.171 234.446 C 195.135 234.140, 196.841 234.380, 197.962 234.980 C 199.980 236.060, 200 236.697, 200 300.344 C 200 350.214, 200.280 365.001, 201.251 366.329 C 202.378 367.870, 204.733 368.013, 225.001 367.770 L 247.500 367.500 247.754 256.608 C 247.940 175.494, 247.706 145.351, 246.882 144.358 C 246.002 143.298, 241.410 143, 225.933 143 C 206.794 143, 206.024 143.077, 203.580 145.250 C 202.188 146.488, 187.763 171.305, 171.523 200.399 C 155.284 229.494, 141.474 253.929, 140.834 254.700 C 140.195 255.471, 138.527 255.966, 137.128 255.801 C 134.887 255.536, 130.942 248.980, 103.889 200.557 C 87.007 170.339, 72.389 145.026, 71.406 144.307 C 69.184 142.683, 31.494 142.482, 28.750 144.080" stroke="none" fill="#040404" fill-rule="evenodd"/><path d="M 363.500 141.496 C 322.090 148.051, 297.825 169.955, 289.275 208.500 C 287.740 215.418, 287.500 221.844, 287.500 256 C 287.500 298.877, 287.974 303.723, 293.642 318.782 C 304.367 347.275, 328.901 365.113, 364.150 370.046 C 376.236 371.737, 399.738 371.494, 410.737 369.564 C 434.644 365.369, 452.779 356.398, 466.275 342.091 C 477.528 330.163, 484.101 315.120, 484.367 300.685 L 484.500 293.500 462 293.208 C 449.625 293.048, 438.088 293.171, 436.363 293.482 C 433.580 293.984, 432.969 294.750, 430.948 300.274 C 425.255 315.832, 420.337 322.192, 410.002 327.362 C 397.237 333.749, 380.046 334.357, 365.555 328.935 C 357.664 325.982, 349.102 317.847, 345.546 309.922 C 340.545 298.779, 339.806 290.623, 340.220 251.115 C 340.591 215.575, 340.598 215.483, 343.280 207.500 C 347.800 194.051, 356.572 185.051, 368.869 181.243 C 377.558 178.553, 397.633 178.875, 405.105 181.823 C 417.938 186.888, 425.586 195.139, 430.046 208.734 C 431.267 212.455, 432.711 216.063, 433.256 216.750 C 434 217.691, 440.515 218, 459.622 218 L 485 218 485 213.565 C 485 201.777, 479.788 187.062, 471.497 175.444 C 459.379 158.462, 435.204 145.589, 407.872 141.565 C 395.404 139.729, 374.862 139.697, 363.500 141.496 M 28.750 144.080 C 27.100 145.041, 27 151.404, 27 255.350 C 27 339.767, 27.281 365.881, 28.200 366.800 C 29.900 368.500, 72.100 368.500, 73.800 366.800 C 74.709 365.891, 75 349.874, 75 300.835 C 75 236.694, 75.020 236.060, 77.038 234.980 C 78.159 234.380, 79.867 234.140, 80.835 234.448 C 81.891 234.783, 90.371 249.428, 102.047 271.080 C 112.746 290.921, 122.491 308.244, 123.702 309.577 C 125.792 311.876, 126.499 312, 137.551 312 C 149.150 312, 149.208 311.988, 151.849 309.079 C 153.307 307.472, 163.031 290.148, 173.459 270.580 C 184.876 249.153, 193.115 234.781, 194.171 234.446 C 195.135 234.140, 196.841 234.380, 197.962 234.980 C 199.980 236.060, 200 236.697, 200 300.344 C 200 350.214, 200.280 365.001, 201.251 366.329 C 202.378 367.870, 204.733 368.013, 225.001 367.770 L 247.500 367.500 247.754 256.608 C 247.940 175.494, 247.706 145.351, 246.882 144.358 C 246.002 143.298, 241.410 143, 225.933 143 C 206.794 143, 206.024 143.077, 203.580 145.250 C 202.188 146.488, 187.763 171.305, 171.523 200.399 C 155.284 229.494, 141.474 253.929, 140.834 254.700 C 140.195 255.471, 138.527 255.966, 137.128 255.801 C 134.887 255.536, 130.942 248.980, 103.889 200.557 C 87.007 170.339, 72.389 145.026, 71.406 144.307 C 69.184 142.683, 31.494 142.482, 28.750 144.080" stroke="none" fill="#f9f9f9" fill-rule="evenodd"/></svg>